<?xml version="1.0" encoding="utf-8"?>
<!-- Generator: Adobe Adobe Illustrator 24.2.0, SVG Export Plug-In . SVG Version: 6.00 Build 0)  -->
<svg version="1.1" xmlns="http://www.w3.org/2000/svg" xmlns:xlink="http://www.w3.org/1999/xlink" x="0px" y="0px" width="70px"
   height="30px" viewBox="0 0 70 30" style="enable-background:new 0 0 70 30;" xml:space="preserve">
<style type="text/css">
  .st0{fill:none;stroke:#E6DA37;stroke-miterlimit:10;}
  .st1{fill:none;stroke:#FFFFBB;stroke-miterlimit:10;}
  .st2{fill:#FFFFBB;stroke:#FFFFBB;stroke-miterlimit:10;}
  .st3{fill:#FFFFCC;}
  .st4{font-family:'Aclonica-Regular';}
  .st5{font-size:4.2064px;}
  .st6{font-family:'KozGoPr6N-Regular-83pv-RKSJ-H';}
</style>
<g id="remon">
  <ellipse class="st0" cx="15" cy="15" rx="13.75" ry="14.25"/>
  <ellipse class="st1" cx="15" cy="15" rx="13.5" ry="14"/>
</g>
<g id="fruit">
  <g>
    <path class="st2" d="M8.78,24.29c1.39-2.17,2.69-4.4,3.88-6.74c-2.21,1.29-4.41,2.59-6.64,3.85c0.01,0.01,0.01,0.01,0.03,0.03
      c-0.7,0.7-0.01,1.74,0.53,2.18c0.66,0.54,1.55,0.86,2.35,0.62"/>
    <path class="st2" d="M5.1,19.97c2.29-1.18,4.52-2.47,6.73-3.9c-2.56,0.02-5.12,0.04-7.67,0.02c0,0.01,0,0.02,0.01,0.04
      c-0.95,0.25-0.88,1.5-0.64,2.15c0.3,0.8,0.91,1.52,1.72,1.72"/>
    <path class="st2" d="M4.06,14.39c2.57,0.12,5.15,0.13,7.78-0.02c-2.22-1.26-4.45-2.53-6.65-3.82c0,0.01,0,0.02-0.01,0.04
      c-0.95-0.26-1.51,0.86-1.63,1.55c-0.14,0.85,0.03,1.77,0.64,2.35"/>
    <path class="st2" d="M5.96,9.03c2.17,1.39,4.4,2.69,6.74,3.88C11.4,10.7,10.11,8.5,8.85,6.27C8.84,6.28,8.83,6.29,8.82,6.3
      c-0.7-0.7-1.74-0.01-2.18,0.53C6.09,7.49,5.77,8.37,6.01,9.18"/>
    <path class="st2" d="M10.28,5.35c1.18,2.29,2.47,4.52,3.9,6.73c-0.02-2.56-0.04-5.12-0.02-7.67c-0.01,0-0.02,0-0.04,0.01
      c-0.25-0.95-1.5-0.88-2.15-0.64c-0.8,0.3-1.52,0.91-1.72,1.72"/>
    <path class="st2" d="M15.86,4.31c-0.12,2.57-0.13,5.15,0.02,7.78c1.26-2.22,2.53-4.45,3.82-6.65c-0.01,0-0.02,0-0.04-0.01
      c0.26-0.95-0.86-1.51-1.55-1.63c-0.85-0.14-1.77,0.03-2.35,0.64"/>
    <path class="st2" d="M21.22,6.21c-1.39,2.17-2.69,4.4-3.88,6.74c2.21-1.29,4.41-2.59,6.64-3.85c-0.01-0.01-0.01-0.01-0.03-0.03
      c0.7-0.7,0.01-1.74-0.53-2.18c-0.66-0.54-1.55-0.86-2.35-0.62"/>
    <path class="st2" d="M24.91,10.53c-2.29,1.18-4.52,2.47-6.73,3.9c2.56-0.02,5.12-0.04,7.67-0.02c0-0.01,0-0.02-0.01-0.04
      c0.95-0.25,0.88-1.5,0.64-2.15c-0.3-0.8-0.91-1.52-1.72-1.72"/>
    <path class="st2" d="M25.94,16.11c-2.57-0.12-5.15-0.13-7.78,0.02c2.22,1.26,4.45,2.53,6.65,3.82c0-0.01,0-0.02,0.01-0.04
      c0.95,0.26,1.51-0.86,1.63-1.55c0.14-0.85-0.03-1.77-0.64-2.35"/>
    <path class="st2" d="M24.04,21.47c-2.17-1.39-4.4-2.69-6.74-3.88c1.29,2.21,2.59,4.41,3.85,6.64c0.01-0.01,0.01-0.01,0.03-0.03
      c0.7,0.7,1.74,0.01,2.18-0.53c0.54-0.66,0.86-1.55,0.62-2.35"/>
    <path class="st2" d="M19.72,25.16c-1.18-2.29-2.47-4.52-3.9-6.73c0.02,2.56,0.04,5.12,0.02,7.67c0.01,0,0.02,0,0.04-0.01
      c0.25,0.95,1.5,0.88,2.15,0.64c0.8-0.3,1.52-0.91,1.72-1.72"/>
    <path class="st2" d="M14.14,26.19c0.12-2.57,0.13-5.15-0.02-7.78c-1.26,2.22-2.53,4.45-3.82,6.65c0.01,0,0.02,0,0.04,0.01
      c-0.26,0.95,0.86,1.51,1.55,1.63c0.85,0.14,1.77-0.03,2.35-0.64"/>
  </g>
</g>
<g id="border">
  <text transform="matrix(1 0 0 1 30.998 25.9593)"><tspan x="0" y="0" class="st3 st4 st5"> R</tspan><tspan x="4.23" y="0" class="st3 st6 st5">・</tspan><tspan x="8.43" y="0" class="st3 st4 st5">E</tspan><tspan x="11.06" y="0" class="st3 st6 st5">・</tspan><tspan x="15.27" y="0" class="st3 st4 st5">M</tspan><tspan x="19.47" y="0" class="st3 st6 st5">・</tspan><tspan x="23.67" y="0" class="st3 st4 st5">O</tspan><tspan x="27.27" y="0" class="st3 st6 st5">・</tspan><tspan x="31.48" y="0" class="st3 st4 st5">N</tspan></text>
</g>
</svg>
